<?xml version="1.0" encoding="UTF-8"?>
<svg id="Layer_1" width="64" height="64" enable-background="new 0 0 122.875 122.648" version="1.1" viewBox="0 0 64 64" xml:space="preserve" xmlns="http://www.w3.org/2000/svg"><g id="g1" transform="matrix(.4883 0 0 .4883 2 2.0554)"><path id="path1" d="m108.99 47.079c7.683-0.059 13.898 6.12 13.882 13.805-0.018 7.683-6.26 13.959-13.942 14.019l-33.693 0.235-0.235 33.73c-0.063 7.619-6.338 13.789-14.014 13.78-7.678-0.01-13.848-6.197-13.785-13.818l0.233-33.497-33.558 0.235c-7.681 0.06-13.897-6.12-13.881-13.804 0.018-7.683 6.261-13.959 13.943-14.018l33.692-0.236 0.236-33.73c0.064-7.619 6.338-13.789 14.014-13.78 7.678 9e-3 13.848 6.197 13.784 13.818l-0.233 33.497z" clip-rule="evenodd" fill-rule="evenodd"/></g></svg>
