<?xml version="1.0" encoding="UTF-8"?>
<svg id="Layer_1" width="64" height="64" enable-background="new 0 0 122.877 101.052" version="1.1" viewBox="0 0 64 64" xml:space="preserve" xmlns="http://www.w3.org/2000/svg"><g id="g1" transform="matrix(.48829 0 0 .48829 2 7.3282)"><path id="path1" d="m4.43 63.63c-2.869-2.755-4.352-6.42-4.427-10.11-0.074-3.689 1.261-7.412 4.015-10.281 2.752-2.867 6.417-4.351 10.106-4.425 3.691-0.076 7.412 1.255 10.283 4.012l24.787 23.851 49.349-62.688 1.768 1.349-1.77-1.355c0.141-0.183 0.301-0.339 0.479-0.466 2.936-2.543 6.621-3.691 10.223-3.495v-4e-3l0.176 0.016c3.623 0.24 7.162 1.85 9.775 4.766 2.658 2.965 3.863 6.731 3.662 10.412h4e-3l-0.016 0.176c-0.236 3.558-1.791 7.035-4.609 9.632l-59.224 72.09 4e-3 4e-3c-0.111 0.141-0.236 0.262-0.372 0.368-2.773 2.435-6.275 3.629-9.757 3.569-3.511-0.061-7.015-1.396-9.741-4.016z"/></g></svg>
