<?xml version="1.0" encoding="UTF-8"?>
<svg id="Layer_1" width="64" height="64" data-name="Layer 1" version="1.1" viewBox="0 0 64 64" xmlns="http://www.w3.org/2000/svg" xmlns:cc="http://creativecommons.org/ns#" xmlns:dc="http://purl.org/dc/elements/1.1/" xmlns:rdf="http://www.w3.org/1999/02/22-rdf-syntax-ns#">
 <title id="title1">turn-right-arrow</title>
 <path id="path1" d="m2 3.68v18.486c0 9.1111 1.2549 15.796 5.4637 20.576 4.3017 4.912 10.893 6.9969 21.245 6.5575h9.1892v8.2566c0.05371 1.0937 0.4248 1.875 1.1084 2.329 1.7187 1.1474 3.4179-0.21484 4.6532-1.3134 3.5644-3.1786 15.312-12.207 17.304-13.935a2.7245 2.7245 0 0 0 0-4.2772c-1.9384-1.6504-13.286-10.312-16.972-13.618-1.2988-1.167-3.1396-2.8759-5.0048-1.6357-0.68358 0.45409-1.0547 1.2353-1.1084 2.3339v9.3015h-9.4383c-6.3475 0.29296-9.9021-0.44433-11.548-2.3193-1.7871-2.0312-2.3242-6.1668-2.3242-12.28v-18.461z" stroke-width=".48827"/>
 <metadata id="metadata1">
  <rdf:RDF>
   <cc:Work rdf:about="">
    <dc:title>turn-right-arrow</dc:title>
   </cc:Work>
  </rdf:RDF>
 </metadata>
</svg>
