<?xml version="1.0" encoding="UTF-8"?>
<svg id="Layer_1" width="64" height="64" version="1.1" viewBox="0 0 64 64" xml:space="preserve" xmlns="http://www.w3.org/2000/svg"><g id="g1" transform="matrix(.4882 0 0 .4882 8.5566 2)" stroke="#000" stroke-width="4.0967"><path id="path1" d="m63.31 0.72c-0.48-0.43-1.16-0.72-1.83-0.72-0.15 0-0.29 0-0.43 0.05h-54.95c-1.64 0-3.19 0.68-4.3 1.79-1.12 1.11-1.8 2.61-1.8 4.3v41.86h5.41v-41.86c0-0.19 0.05-0.34 0.19-0.43 0.1-0.1 0.24-0.19 0.43-0.19h52.68v23.83c0 2.27 0.92 4.35 2.42 5.85s3.58 2.42 5.85 2.42h23.39v79.19c0 0.15-0.05 0.34-0.19 0.43-0.1 0.1-0.24 0.19-0.44 0.19h-83.71c-0.15 0-0.34-0.05-0.43-0.19-0.1-0.1-0.19-0.29-0.19-0.43v-42.9h-5.41v42.9c0 1.69 0.68 3.19 1.79 4.3s2.61 1.79 4.3 1.79h83.76c1.69 0 3.19-0.68 4.3-1.79s1.79-2.61 1.79-4.3v-81.29c0.05-0.24 0.1-0.43 0.1-0.68 0-0.82-0.39-1.55-0.92-2.08l-31.47-31.84c-0.1-0.1-0.14-0.14-0.24-0.19h-0.1zm-19.75 63.26h-43.56v-6.04h43.53l-12.11-13.87c-1.09-1.23-0.98-3.12 0.25-4.21s3.09-0.98 4.18 0.25l16.45 18.85c1.02 1.16 0.98 2.88-0.04 4l-16.42 18.81c-1.09 1.23-2.95 1.37-4.18 0.25-1.23-1.09-1.33-2.98-0.25-4.21l12.11-13.87zm20.62-34.64v-19.96l22.47 22.76h-19.66c-0.77 0-1.45-0.34-1.98-0.82-0.49-0.49-0.83-1.21-0.83-1.98z" stroke="#000" stroke-width="4.0967"/></g></svg>
