<?xml version="1.0" encoding="UTF-8"?>
<svg id="Layer_1" width="64" height="64" version="1.1" viewBox="0 0 64 64" xml:space="preserve" xmlns="http://www.w3.org/2000/svg"><g id="g1" transform="matrix(.48828 0 0 .48828 6.9756 2)" stroke="#000" stroke-width="4.096"><path id="path1" d="m69.78 0.72c-0.48-0.43-1.16-0.72-1.83-0.72-0.14 0-0.29 0-0.43 0.05h-61.42c-1.64 0-3.19 0.68-4.3 1.79-1.12 1.11-1.8 2.61-1.8 4.3v110.65c0 1.69 0.68 3.19 1.79 4.3s2.61 1.79 4.3 1.79h90.22c1.69 0 3.19-0.68 4.3-1.79s1.79-2.61 1.79-4.3v-81.27c0.05-0.24 0.1-0.43 0.1-0.68 0-0.82-0.39-1.55-0.92-2.08l-31.46-31.84c-0.1-0.1-0.15-0.14-0.24-0.19h-0.1zm-21.27 83.03v-34.89c0-1.49 1.2-2.69 2.73-2.69 1.49 0 2.73 1.2 2.73 2.69v34.86l12.52-10.93c1.11-0.98 2.82-0.89 3.8 0.22s0.89 2.79-0.22 3.77l-17.02 14.86c-1.05 0.92-2.6 0.89-3.61-0.03l-16.99-14.84c-1.11-0.98-1.24-2.66-0.22-3.77 0.98-1.11 2.69-1.2 3.8-0.22l12.52 10.93zm16.68-78.24v23.83c0 2.27 0.92 4.35 2.42 5.85s3.58 2.42 5.85 2.42h23.39v79.19c0 0.15-0.05 0.34-0.19 0.43-0.1 0.1-0.24 0.19-0.43 0.19h-90.18c-0.15 0-0.34-0.05-0.43-0.19-0.1-0.1-0.19-0.29-0.19-0.43v-110.66c0-0.19 0.05-0.34 0.19-0.43 0.1-0.1 0.24-0.19 0.43-0.19h59.14zm5.46 23.83v-19.96l22.47 22.76h-19.67c-0.77 0-1.45-0.34-1.98-0.82-0.48-0.49-0.82-1.21-0.82-1.98z" stroke="#000" stroke-width="4.096"/></g></svg>
