<?xml version="1.0" encoding="UTF-8" standalone="no"?>
<svg
   version="1.1"
   id="Layer_1"
   x="0px"
   y="0px"
   width="64"
   height="64"
   viewBox="0 0 64.000001 64.000001"
   enable-background="new 0 0 122.879 101.018"
   xml:space="preserve"
   sodipodi:docname="groups.svg"
   inkscape:version="1.4.2 (ebf0e940d0, 2025-05-08)"
   xmlns:inkscape="http://www.inkscape.org/namespaces/inkscape"
   xmlns:sodipodi="http://sodipodi.sourceforge.net/DTD/sodipodi-0.dtd"
   xmlns="http://www.w3.org/2000/svg"
   xmlns:svg="http://www.w3.org/2000/svg"><defs
     id="defs1" /><sodipodi:namedview
     id="namedview1"
     pagecolor="#ffffff"
     bordercolor="#000000"
     borderopacity="0.25"
     inkscape:showpageshadow="2"
     inkscape:pageopacity="0.0"
     inkscape:pagecheckerboard="0"
     inkscape:deskcolor="#d1d1d1"
     inkscape:zoom="7.9985747"
     inkscape:cx="61.448448"
     inkscape:cy="50.508999"
     inkscape:window-width="1920"
     inkscape:window-height="1021"
     inkscape:window-x="1920"
     inkscape:window-y="0"
     inkscape:window-maximized="1"
     inkscape:current-layer="Layer_1" /><g
     id="g1"
     transform="matrix(0.48828522,0,0,0.48828522,2.0000002,7.337446)"
     style="stroke-width:2.04798"><path
       d="m 4.923,28.587 h 87.663 c 1.357,0 2.588,0.553 3.479,1.444 0.891,0.891 1.445,2.123 1.445,3.479 v 62.584 c 0,1.356 -0.553,2.589 -1.445,3.479 -0.078,0.079 -0.16,0.152 -0.246,0.221 -0.867,0.761 -1.998,1.223 -3.232,1.223 H 4.923 c -1.356,0 -2.588,-0.553 -3.479,-1.443 C 0.553,98.684 0,97.451 0,96.095 V 33.51 C 0,32.153 0.553,30.922 1.444,30.031 2.334,29.14 3.566,28.587 4.923,28.587 Z M 32.734,5.852 c -1.616,0 -2.926,-1.31 -2.926,-2.926 C 29.808,1.311 31.118,0 32.734,0 h 87.221 c 1.615,0 2.924,1.311 2.924,2.926 v 61.476 c 0,1.616 -1.309,2.926 -2.924,2.926 -1.617,0 -2.926,-1.31 -2.926,-2.926 V 5.852 Z M 19.531,20.651 c -1.616,0 -2.925,-1.31 -2.925,-2.926 0,-1.616 1.31,-2.926 2.925,-2.926 h 87.221 c 1.615,0 2.926,1.31 2.926,2.926 v 61.476 c 0,1.616 -1.311,2.926 -2.926,2.926 -1.615,0 -2.926,-1.31 -2.926,-2.926 V 20.651 Z M 91.658,34.438 H 5.851 v 60.729 h 85.807 z"
       id="path1"
       style="stroke-width:2.04798" /></g></svg>
