<?xml version="1.0" encoding="UTF-8" standalone="no"?>
<svg
   id="Layer_1"
   data-name="Layer 1"
   viewBox="0 0 64.000001 63.999998"
   version="1.1"
   sodipodi:docname="hidden_ind.svg"
   width="64"
   height="64"
   inkscape:version="1.4.2 (ebf0e940d0, 2025-05-08)"
   xmlns:inkscape="http://www.inkscape.org/namespaces/inkscape"
   xmlns:sodipodi="http://sodipodi.sourceforge.net/DTD/sodipodi-0.dtd"
   xmlns="http://www.w3.org/2000/svg"
   xmlns:svg="http://www.w3.org/2000/svg"
   xmlns:rdf="http://www.w3.org/1999/02/22-rdf-syntax-ns#"
   xmlns:cc="http://creativecommons.org/ns#"
   xmlns:dc="http://purl.org/dc/elements/1.1/">
  <defs
     id="defs1" />
  <sodipodi:namedview
     id="namedview1"
     pagecolor="#ffffff"
     bordercolor="#000000"
     borderopacity="0.25"
     inkscape:showpageshadow="2"
     inkscape:pageopacity="0.0"
     inkscape:pagecheckerboard="0"
     inkscape:deskcolor="#d1d1d1"
     inkscape:zoom="10.259014"
     inkscape:cx="20.177378"
     inkscape:cy="39.380003"
     inkscape:window-width="1920"
     inkscape:window-height="1021"
     inkscape:window-x="1920"
     inkscape:window-y="0"
     inkscape:window-maximized="1"
     inkscape:current-layer="Layer_1" />
  <title
     id="title1">low-vision</title>
  <path
     id="path1"
     style="stroke-width:1;fill:#d4aa00"
     d="M 19.408203 12.773438 L 16.044922 14.960938 L 17.998047 17.890625 A 40.555998 40.555998 0 0 0 7.5507812 24.890625 A 52.619785 52.619785 0 0 0 2.5117188 30.203125 A 1.9235661 1.9235661 0 0 0 2.4179688 32.707031 A 43.783098 43.783098 0 0 0 11.357422 41.197266 A 37.143377 37.143377 0 0 0 32.986328 48.203125 A 34.380082 34.380082 0 0 0 37.681641 47.851562 L 39.894531 51.226562 L 43.234375 49.042969 L 41.871094 46.972656 A 34.3752 34.3752 0 0 0 54.125 40.675781 A 39.140176 39.140176 0 0 0 61.628906 32.658203 A 1.952859 1.952859 0 0 0 61.507812 30.21875 A 59.459673 59.459673 0 0 0 55.384766 24.359375 C 47.446394 17.812416 39.02427 14.756859 30.802734 14.927734 A 31.704665 31.704665 0 0 0 21.806641 16.425781 L 19.408203 12.773438 z M 30.857422 18.769531 C 38.165997 18.632831 45.72266 21.395342 52.923828 27.341797 A 54.001432 54.001432 0 0 1 57.5625 31.673828 A 34.550957 34.550957 0 0 1 51.703125 37.673828 A 30.415778 30.415778 0 0 1 39.621094 43.570312 L 37.248047 39.953125 A 9.9009949 9.9009949 0 0 1 37.25 39.951172 L 27.253906 24.695312 L 26.982422 24.283203 L 26.410156 23.408203 L 25.216797 21.587891 L 24.03125 19.783203 A 27.82824 27.82824 0 0 1 30.857422 18.769531 z M 20.136719 21.15625 L 35.300781 44.253906 C 34.519637 44.317374 33.737197 44.361328 32.951172 44.361328 C 32.37996 44.361328 31.803633 44.351556 31.232422 44.322266 L 17.054688 22.699219 L 17.041016 22.699219 A 33.823517 33.823517 0 0 1 20.136719 21.15625 z M 14.775391 24.101562 L 27.810547 43.957031 A 32.19288 32.19288 0 0 1 22.109375 42.492188 L 11.396484 26.644531 A 38.451793 38.451793 0 0 1 14.775391 24.101562 z M 9.4003906 28.435547 L 17.542969 40.480469 L 17.542969 40.484375 A 36.249944 36.249944 0 0 1 13.574219 38.044922 A 39.623508 39.623508 0 0 1 6.4375 31.527344 C 7.3976556 30.443507 8.384904 29.411976 9.4003906 28.435547 z " />
  <metadata
     id="metadata1">
    <rdf:RDF>
      <cc:Work
         rdf:about="">
        <dc:title>low-vision</dc:title>
      </cc:Work>
    </rdf:RDF>
  </metadata>
</svg>
