<?xml version="1.0" encoding="UTF-8" standalone="no"?>
<svg
   id="Layer_1"
   data-name="Layer 1"
   viewBox="0 0 64.000001 63.999998"
   version="1.1"
   sodipodi:docname="hidden.svg"
   width="64"
   height="64"
   inkscape:version="1.4.2 (ebf0e940d0, 2025-05-08)"
   xmlns:inkscape="http://www.inkscape.org/namespaces/inkscape"
   xmlns:sodipodi="http://sodipodi.sourceforge.net/DTD/sodipodi-0.dtd"
   xmlns="http://www.w3.org/2000/svg"
   xmlns:svg="http://www.w3.org/2000/svg"
   xmlns:rdf="http://www.w3.org/1999/02/22-rdf-syntax-ns#"
   xmlns:cc="http://creativecommons.org/ns#"
   xmlns:dc="http://purl.org/dc/elements/1.1/">
  <defs
     id="defs1" />
  <sodipodi:namedview
     id="namedview1"
     pagecolor="#ffffff"
     bordercolor="#000000"
     borderopacity="0.25"
     inkscape:showpageshadow="2"
     inkscape:pageopacity="0.0"
     inkscape:pagecheckerboard="0"
     inkscape:deskcolor="#d1d1d1"
     inkscape:zoom="10.259014"
     inkscape:cx="61.458145"
     inkscape:cy="39.380001"
     inkscape:window-width="1920"
     inkscape:window-height="1021"
     inkscape:window-x="0"
     inkscape:window-y="0"
     inkscape:window-maximized="1"
     inkscape:current-layer="Layer_1" />
  <title
     id="title1">low-vision</title>
  <path
     d="M 2.5115724,30.203369 A 52.619785,52.619785 0 0 1 7.5499486,24.891593 40.555998,40.555998 0 0 1 17.997744,17.890594 l -1.952859,-2.929289 3.3638,-2.187202 2.397134,3.651847 a 31.704665,31.704665 0 0 1 8.997798,-1.49882 c 8.221536,-0.170875 16.64324,2.88535 24.581612,9.432309 a 59.459673,59.459673 0 0 1 6.122213,5.858577 1.952859,1.952859 0 0 1 0.122054,2.441073 39.140176,39.140176 0 0 1 -7.503861,8.016486 34.3752,34.3752 0 0 1 -12.25419,6.297971 l 1.362119,2.07003 -3.339389,2.182321 -2.211612,-3.373564 a 34.380082,34.380082 0 0 1 -4.696626,0.351514 37.143377,37.143377 0 0 1 -21.627914,-7.005882 43.783098,43.783098 0 0 1 -8.9392114,-8.490054 1.9235661,1.9235661 0 0 1 0.092761,-2.504542 z m 8.8855086,-3.559085 10.711431,15.84745 a 32.19288,32.19288 0 0 0 5.702348,1.464644 L 14.775527,24.100685 a 38.451793,38.451793 0 0 0 -3.378446,2.543599 z M 17.543704,40.480289 9.4002824,28.436032 q -1.52323,1.464644 -2.9634634,3.090399 a 39.623508,39.623508 0 0 0 7.1377,6.517668 36.249944,36.249944 0 0 0 3.969185,2.441074 z m -0.488214,-17.78078 14.177756,21.62303 c 0.571211,0.02929 1.147304,0.03906 1.718516,0.03906 0.786025,0 1.567169,-0.04394 2.348313,-0.107408 l -15.16395,-23.09744 a 33.823517,33.823517 0 0 0 -3.095282,1.542758 z m 6.966824,-2.929288 2.38737,3.637199 a 9.9009949,9.9009949 0 1 1 10.838367,16.545598 l 2.372724,3.617671 a 30.415778,30.415778 0 0 0 12.083315,-5.897634 34.550957,34.550957 0 0 0 5.858577,-6.000159 54.001432,54.001432 0 0 0 -4.63804,-4.330465 C 45.723459,21.395976 38.165895,18.63268 30.85732,18.76938 a 27.82824,27.82824 0 0 0 -6.835006,1.015487 z m 2.958581,4.511103 4.213294,6.415142 a 3.84225,3.84225 0 1 0 -4.22794,-6.400495 z"
     id="path1"
     style="stroke-width:1" />
  <metadata
     id="metadata1">
    <rdf:RDF>
      <cc:Work
         rdf:about="">
        <dc:title>low-vision</dc:title>
      </cc:Work>
    </rdf:RDF>
  </metadata>
</svg>
