<?xml version="1.0" encoding="UTF-8"?>
<svg id="Layer_1" width="64" height="64" enable-background="new 0 0 122.88 117.824" version="1.1" viewBox="0 0 64 64" xml:space="preserve" xmlns="http://www.w3.org/2000/svg"><path id="path9" d="m27.533 14.282h-21.201c-2.6333 0-4.7876-2.1548-4.7876-4.7876 0-2.6333 2.1543-4.7876 4.7876-4.7876h21.254c-0.74463 1.4512-1.1655 3.0967-1.1655 4.8403 0 1.7017 0.40088 3.3096 1.1123 4.7349z" fill="#0ff" stroke="#000" stroke-width="2"/><path id="path8" d="m45.127 9.5476c0 4.4678-3.6221 8.0894-8.0898 8.0894s-8.0898-3.6211-8.0898-8.0894c0-4.4678 3.6216-8.0894 8.0894-8.0894 4.4678 0 8.0903 3.6216 8.0903 8.0894z" fill="#0ff" stroke="#000" stroke-width="2"/><path id="path7" d="m32.97 34.863h23.763c2.6328 0 4.7876-2.1543 4.7876-4.7876 0-2.6338-2.1543-4.7881-4.7876-4.7881h-23.815c0.74463 1.4517 1.1655 3.1182 1.1655 4.8408 0 1.7227-0.40137 3.3091-1.1128 4.7349z" fill="#f60" stroke="#000" stroke-width="2"/><path id="path6" d="m1.5208 30.075c0 2.6333 2.1553 4.7876 4.7876 4.7876h7.6538c-0.71143-1.4258-1.1123-3.0122-1.1123-4.7344 0-1.7227 0.42041-3.3892 1.1655-4.8408h-7.707c-2.6333 0-4.7876 2.1543-4.7876 4.7876z" fill="#f60" stroke="#000" stroke-width="2"/><path id="path5" d="m15.352 30.129c0 4.4673 3.6221 8.0894 8.0898 8.0894 4.4673 0 8.0894-3.6221 8.0894-8.0894 0-4.4678-3.6221-8.0898-8.0894-8.0898-4.4678-4.89e-4 -8.0898 3.6216-8.0898 8.0898z" fill="#f60" stroke="#000" stroke-width="2"/><path id="path4" d="m27.533 55.634h-21.219c-2.6333 0-4.7876-2.1543-4.7876-4.7876 0-2.6333 2.1543-4.7876 4.7876-4.7876h21.272c-0.74463 1.4512-1.1655 3.0967-1.1655 4.8403 0 1.7017 0.40088 3.3096 1.1123 4.7349z" fill="#00f" stroke="#000" stroke-width="2"/><path id="path3" d="m61.515 50.847c0 2.6333-2.1548 4.7876-4.7881 4.7876h-10.186c0.71143-1.4253 1.1123-3.0332 1.1123-4.7344 0-1.7437-0.42041-3.3892-1.1655-4.8403h10.239c2.6338 0 4.7881 2.1543 4.7881 4.7871z" fill="#00f" stroke="#000" stroke-width="2"/><path id="path2" d="m45.127 50.9c0 4.4678-3.6221 8.0894-8.0898 8.0894s-8.0894-3.6216-8.0894-8.0894c0-4.4673 3.6216-8.0894 8.0894-8.0894s8.0898 3.6216 8.0898 8.0894z" fill="#00f" stroke="#000" stroke-width="2"/><path id="path1" d="m61.469 9.4948c0 2.6333-2.1543 4.7876-4.7876 4.7876h-10.14c0.71143-1.4253 1.1123-3.0332 1.1123-4.7349 0-1.7437-0.42041-3.3892-1.1655-4.8403h10.193c2.6333 0 4.7876 2.1543 4.7876 4.7876z" fill="#0ff" stroke="#000" stroke-width="2"/></svg>
