<?xml version="1.0" encoding="UTF-8"?>
<svg id="Layer_1" width="64" height="64" version="1.1" viewBox="0 0 64 64" xml:space="preserve" xmlns="http://www.w3.org/2000/svg"><style id="style1" type="text/css">.st0{fill-rule:evenodd;clip-rule:evenodd;stroke:#000000;stroke-width:0.5;stroke-miterlimit:2.6131;}</style><path id="path1" d="m25.241 6.0391c-5.8403 1.5138-10.903 4.9462-14.483 9.5804-3.511 4.5365-5.5966 10.226-5.5966 16.393 0 6.563 2.3638 12.584 6.2947 17.257 3.9017 4.6439 9.3511 7.9498 15.553 9.1168l0.0048 3.6137 6.5389-5.3667-6.5389-5.3667v3.5794c-5.142-1.1134-9.6489-3.9214-12.911-7.8035-3.4084-4.0579-5.4649-9.3021-5.4649-15.03 0-5.3812 1.8122-10.333 4.8593-14.278 3.1203-4.0384 7.5299-7.0268 12.613-8.3453z"/><path id="path12" d="m36.995 2-6.5379 5.3667 6.5331 5.3715v-3.5594c5.0883 1.1085 9.5565 3.8674 12.814 7.6958 3.467 4.0726 5.5575 9.3609 5.5575 15.143 0 5.0736-1.6171 9.7663-4.3615 13.595-2.7395 3.8186-6.5965 6.7823-11.094 8.3987-0.13184 0.04883-0.26861 0.09816-0.40534 0.14211l0.55699 1.6404 0.55603 1.6414c5.3715-1.8214 9.9766-5.2885 13.214-9.8054 3.1545-4.3997 5.01-9.791 5.01-15.617 0-6.6216-2.4072-12.691-6.3968-17.379-3.8968-4.5804-9.3029-7.8327-15.446-8.99z"/><path id="rect2" d="m21.631 18.099v27.802h6.8823v-27.802zm13.856 0v27.802h6.8823v-27.802z" stroke="#000" stroke-linecap="round" stroke-linejoin="round" stroke-width="2.2866"/></svg>
