<?xml version="1.0" encoding="UTF-8"?>
<svg id="Layer_1" width="64" height="64" version="1.1" viewBox="0 0 64 64" xml:space="preserve" xmlns="http://www.w3.org/2000/svg"><style id="style1" type="text/css">.st0{fill-rule:evenodd;clip-rule:evenodd;}</style><g id="g1" transform="matrix(.48832 0 0 .48832 4.5189 1.9992)"><path id="path1" class="st0" d="m104.41 6.1c6.26 5.13 6.93 11.83 7.62 13.46l0.34 2.5c0.9 5.39-1.65 12.75-5.58 17.38l-17.59 20.4c-6.76 7.84-18.04 10.44-27.48 6.37l-0.03 0.04c3.45 5.63 3.15 9.64 3.46 10.57 0.9 5.41-1.65 12.74-5.58 17.38l-17.6 20.4c-8.53 9.89-23.58 11.1-33.53 2.61-5.04-5.04-7.84-9.31-8.37-16.49-0.47-6.24 1.53-12.37 5.59-17.18l17.92-20.79c5.01-5.14 7.5-5.86 13.33-7.47l2.5-0.34 10.66 1.56c0.22 0.08 0.44 0.18 0.65 0.27l0.03-0.04c-5.35-8.71-4.57-20.11 2.14-27.97l17.59-20.39c4.11-4.77 9.99-7.71 16.15-8.19 5.37-0.89 12.77 1.64 17.38 5.58zm-30.18 45.61-3.66 4.24 0.64 0.01h0.02l0.6-0.02h0.01l0.14-0.01h0.02c2.11-0.16 4.19-0.88 5.96-2.14 0.34-0.24 0.68-0.51 1.02-0.82 0.3-0.27 0.62-0.59 0.93-0.95l0.12-0.13 17.45-20.24c1.47-1.7 2.36-3.75 2.68-5.86 0.07-0.44 0.11-0.87 0.13-1.26 0.02-0.41 0.01-0.85-0.01-1.28v-0.05l-0.01-0.11c-0.16-2.11-0.88-4.19-2.14-5.96-0.24-0.34-0.51-0.67-0.78-0.97l-0.03-0.04c-0.29-0.32-0.61-0.64-0.94-0.94l-0.06-0.05-0.05-0.05-0.11-0.08c-1.69-1.43-3.7-2.3-5.78-2.61h-0.03c-0.43-0.06-0.85-0.11-1.24-0.12-0.41-0.02-0.84-0.01-1.27 0.01h-0.07l-0.1 0.01c-2.11 0.16-4.19 0.88-5.96 2.14-0.34 0.24-0.68 0.51-0.98 0.78l-0.03 0.03c-0.33 0.29-0.64 0.61-0.94 0.95l-0.12 0.13-17.44 20.23c-1.47 1.7-2.36 3.75-2.68 5.86-0.06 0.43-0.11 0.86-0.12 1.26-0.02 0.41-0.01 0.85 0.01 1.28l0.01 0.15v0.03c0.03 0.46 0.09 0.91 0.18 1.37l3.58-4.15 0.1-0.12 0.13-0.14 0.02-0.02c1.29-1.39 3.02-2.18 4.79-2.3 1.78-0.13 3.62 0.39 5.1 1.6l0.02 0.01 0.09 0.08 0.05 0.05 0.02 0.01 0.07 0.06c2.06 1.83 2.82 4.6 2.21 7.13-0.12 0.5-0.3 1-0.54 1.48-0.22 0.46-0.51 0.9-0.83 1.31l-0.02 0.02-0.03 0.04-0.01 0.02-0.1 0.12zm-34.17 28.52c2.33 2.01 5.88 1.75 7.89-0.58l5.58-6.47c0.65 1.45 1.04 3 1.16 4.57 0.25 3.44-0.79 6.97-3.19 9.75l-17.46 20.24c-2.4 2.79-5.73 4.34-9.16 4.59-3.38 0.25-6.84-0.75-9.59-3.05l-0.16-0.14c-2.78-2.4-4.34-5.73-4.59-9.16-0.25-3.4 0.76-6.89 3.1-9.65l0.09-0.1 17.25-20 0.21-0.24c2.4-2.78 5.73-4.34 9.16-4.59 1.58-0.12 3.18 0.04 4.71 0.47l-5.58 6.47c-2.01 2.33-1.75 5.88 0.58 7.89z"/></g></svg>
