<?xml version="1.0" encoding="UTF-8"?>
<svg id="Layer_1" width="64" height="64" version="1.1" viewBox="0 0 64 64" xml:space="preserve" xmlns="http://www.w3.org/2000/svg"><g id="g1" transform="matrix(.48828 0 0 .48828 2 7.0781)"><path id="path1" d="m8.18 23.12h67.09v5.39h-67.09c-0.77 0-1.47 0.31-1.98 0.82-0.5 0.51-0.82 1.21-0.82 1.98v39.46c0 0.77 0.31 1.47 0.82 1.98 0.51 0.5 1.21 0.82 1.98 0.82h67.09v5.39h-67.09c-2.24 0-4.29-0.92-5.77-2.4l-0.01-0.03c-1.48-1.48-2.4-3.52-2.4-5.77v-39.46c0-2.24 0.92-4.29 2.4-5.77l0.01-0.01c1.48-1.48 3.53-2.4 5.77-2.4zm63.59 30.73c-1.52 0-2.75-1.23-2.75-2.75s1.23-2.75 2.75-2.75h12.78v-30.31c-0.39-3.8-1.56-6.62-3.34-8.6-1.93-2.16-4.67-3.43-7.99-3.98-1.49-0.24-2.51-1.65-2.26-3.15 0.24-1.49 1.65-2.51 3.15-2.26 4.54 0.75 8.37 2.57 11.19 5.74 0.72 0.8 1.37 1.69 1.94 2.66 0.72-1.25 1.58-2.35 2.56-3.32 2.94-2.92 6.88-4.51 11.59-5.1 1.51-0.18 2.88 0.89 3.06 2.4s-0.89 2.88-2.4 3.06c-3.52 0.44-6.38 1.54-8.39 3.53-1.99 1.97-3.25 4.91-3.61 9.04v5.07h24.65c2.24 0 4.29 0.92 5.77 2.4l0.01 0.01c1.48 1.48 2.4 3.53 2.4 5.77v39.46c0 2.24-0.92 4.29-2.4 5.77l-0.01 0.01c-1.48 1.48-3.53 2.4-5.77 2.4h-24.65v5.07c0.36 4.13 1.62 7.08 3.61 9.04 2 1.98 4.86 3.09 8.39 3.53 1.51 0.18 2.58 1.56 2.4 3.06-0.18 1.51-1.55 2.58-3.06 2.4-4.7-0.59-8.65-2.18-11.59-5.1-0.98-0.97-1.84-2.07-2.56-3.32-0.57 0.97-1.22 1.85-1.94 2.66-2.83 3.16-6.66 4.99-11.19 5.74-1.49 0.24-2.9-0.77-3.15-2.26-0.24-1.49 0.77-2.9 2.26-3.15 3.32-0.55 6.06-1.81 7.99-3.98 1.78-1.99 2.94-4.81 3.34-8.6v-30.17h-12.78zm18.28-25.35v19.84h12.98c1.52 0 2.75 1.23 2.75 2.75s-1.23 2.75-2.75 2.75h-12.98v19.71h24.65c0.77 0 1.47-0.31 1.98-0.82 0.5-0.51 0.82-1.21 0.82-1.98v-39.45c0-0.77-0.31-1.47-0.82-1.98-0.51-0.5-1.21-0.82-1.98-0.82z"/></g></svg>
