<?xml version="1.0" encoding="UTF-8"?>
<svg id="Layer_1" width="64" height="64" version="1.1" viewBox="0 0 64 64" xml:space="preserve" xmlns="http://www.w3.org/2000/svg"><style id="style1" type="text/css">.st0{fill-rule:evenodd;clip-rule:evenodd;}</style><g id="g1" transform="matrix(.48824 0 0 .48824 2 5.6301)"><path id="path1" class="st0" d="m16.35 0h90.19c8.99 0 16.35 7.36 16.35 16.35v75.32c0 8.99-7.36 16.35-16.35 16.35h-90.19c-8.99-0.01-16.35-7.36-16.35-16.35v-75.32c0-8.99 7.36-16.35 16.35-16.35zm48.29 77.54h49.62v21.2h-49.62zm-56.62 0h49.62v21.2h-49.62zm0-56.41h49.62v21.2h-49.62zm0 28.21h49.62v21.2h-49.62zm56.62-28.21h49.62v21.2h-49.62zm0 28.21h49.62v21.2h-49.62z"/></g></svg>
