<?xml version="1.0" encoding="UTF-8"?>
<svg id="Layer_1" width="64" height="64" enable-background="new 0 0 122.88 101.878" version="1.1" viewBox="0 0 64 64" xml:space="preserve" xmlns="http://www.w3.org/2000/svg"><g id="g1" transform="matrix(.48829 0 0 .48829 2 7.1275)"><path id="path1" d="m64.406 12.143c-2.672-1.042-5.431-1.586-8.276-1.586-4.279 0-7.798 1.369-10.557 4.084l-23.808 23.786 2.477 2.499-9.037 9.101-15.205-15.228 9.036-9.037 2.802 2.737 23.677-23.655c3.258-3.236 6.756-4.844 10.492-4.844 6.278 0 12.404 4.041 18.399 12.143zm36.129-6.735c2.588 0 5.072 0.441 7.384 1.25l-5.874 6.358c-13.345 14.437 1.715 22.79 14.986 12.879l5.119-3.822c0.475 1.813 0.729 3.717 0.729 5.679 0 12.341-10.003 22.345-22.345 22.345-4.026 0-7.804-1.065-11.066-2.929l-10.852 11.521c10.214 9.778 20.431 19.554 30.646 29.33l-13.858 13.858c-9.664-10.077-19.324-20.159-28.982-30.242l-19.028 20.198c-1.445 2.471-4.126 4.132-7.194 4.132-4.599 0-8.329-3.729-8.329-8.329 0-1.988 0.699-3.815 1.862-5.247l-0.012-0.012 0.073-0.063c0.601-0.723 1.322-1.342 2.132-1.828l21.401-18.346-26.386-27.636 10.949-10.948c10.157 9.756 18.402 17.582 28.572 27.324l11.864-10.172c-2.604-3.654-4.136-8.125-4.136-12.955 0-12.342 10.003-22.345 22.345-22.345zm-71.905 4.954-10.883 10.883-2.086-2.085 10.883-10.884z" clip-rule="evenodd" fill-rule="evenodd"/></g></svg>
