<?xml version="1.0" encoding="UTF-8" standalone="no"?>
<svg
   version="1.1"
   id="Layer_1"
   x="0px"
   y="0px"
   width="64"
   height="64"
   viewBox="0 0 64.000001 64"
   enable-background="new 0 0 122.88 109.652"
   xml:space="preserve"
   sodipodi:docname="lock-open-icon.svg"
   inkscape:version="1.4.2 (ebf0e940d0, 2025-05-08)"
   xmlns:inkscape="http://www.inkscape.org/namespaces/inkscape"
   xmlns:sodipodi="http://sodipodi.sourceforge.net/DTD/sodipodi-0.dtd"
   xmlns="http://www.w3.org/2000/svg"
   xmlns:svg="http://www.w3.org/2000/svg"><defs
     id="defs1" /><sodipodi:namedview
     id="namedview1"
     pagecolor="#ffffff"
     bordercolor="#000000"
     borderopacity="0.25"
     inkscape:showpageshadow="2"
     inkscape:pageopacity="0.0"
     inkscape:pagecheckerboard="0"
     inkscape:deskcolor="#d1d1d1"
     inkscape:zoom="7.3687666"
     inkscape:cx="42.13731"
     inkscape:cy="54.826"
     inkscape:window-width="1920"
     inkscape:window-height="1021"
     inkscape:window-x="1920"
     inkscape:window-y="0"
     inkscape:window-maximized="1"
     inkscape:current-layer="Layer_1" /><g
     id="g1"
     transform="matrix(0.48827728,0,0,0.48827728,1.9999998,5.2294657)"
     style="stroke-width:2.04802"><path
       fill-rule="evenodd"
       clip-rule="evenodd"
       d="M 2.585,49.871 H 54.77 V 34.054 34.043 h 0.009 C 54.781,24.675 58.607,16.165 64.768,10.001 70.932,3.838 79.447,0.01 88.819,0.01 V 0 h 0.005 v 0 h 0.012 v 0.009 c 9.368,0.002 17.878,3.828 24.042,9.989 6.164,6.164 9.991,14.679 9.991,24.051 h 0.012 v 0.004 15.96 2.403 h -2.403 -9.811 -2.404 V 50.013 33.868 33.859 h 0.012 C 108.273,28.527 106.08,23.67 102.553,20.144 99.025,16.613 94.165,14.423 88.829,14.42 v 0.009 h -0.005 v 0 H 88.813 V 14.42 c -5.334,0.002 -10.191,2.19 -13.72,5.717 l 0.005,0.005 c -3.529,3.528 -5.722,8.388 -5.722,13.722 h 0.009 v 0.005 16.003 h 13.987 c 1.422,0 2.585,1.164 2.585,2.585 v 54.613 c 0,1.422 -1.163,2.583 -2.585,2.583 H 2.585 C 1.161,109.653 0,108.492 0,107.07 V 52.456 c 0,-1.421 1.161,-2.585 2.585,-2.585 z m 41.372,29.882 4.098,18.908 -11.232,0.045 3.297,-19.162 c -3.068,-0.981 -5.295,-3.857 -5.295,-7.252 0,-4.202 3.411,-7.613 7.614,-7.613 4.202,0 7.613,3.411 7.613,7.613 10e-4,3.683 -2.619,6.756 -6.095,7.461 z"
       id="path1"
       style="stroke-width:2.04802" /></g></svg>
