<?xml version="1.0" encoding="UTF-8"?>
<svg id="svg1" width="64" height="64" clip-rule="evenodd" fill-rule="evenodd" image-rendering="optimizeQuality" shape-rendering="geometricPrecision" text-rendering="geometricPrecision" version="1.1" viewBox="0 0 64 64" xmlns="http://www.w3.org/2000/svg">
 <path id="path1" d="m24.462 10.738c3.881-6.6451 11.233-6.6575 15.094 0.01359l0.10988 0.20504 19.855 34.483c3.8187 6.389-0.13594 12.887-7.4958 12.796v0.01359h-40.695c-0.10195 0-0.20164-0.0045-0.30133-0.01246-6.6088-0.08949-9.8147-6.1421-7.0121-12.103 0.04418-0.09629 0.09289-0.18918 0.145-0.27867l-0.00453-0.0034 20.311-35.11zm5.7003 34.256c0.48258-0.46785 1.0592-0.70121 1.6369-0.74312 0.38516-0.02719 0.77031 0.03285 1.126 0.16766 0.35457 0.1348 0.68082 0.34324 0.95043 0.61285 0.7839 0.78277 0.98781 1.9688 0.52562 2.9634-0.30473 0.65703-0.80203 1.0988-1.3718 1.3344-0.34324 0.14387-0.71367 0.20844-1.083 0.19937-0.37043-0.0091-0.73519-0.09289-1.066-0.24695-0.56867-0.26394-1.0535-0.7284-1.3254-1.382-0.3002-0.72047-0.25715-1.4681 0.07137-2.1693 0.13027-0.27867 0.31152-0.54488 0.53582-0.73633zm3.8357-5.3321c-0.09062 2.2554-3.9093 2.2577-3.9965-0.0011-0.38629-3.8629-1.3741-12.521-1.3424-16.152 0.03172-1.1181 0.95949-1.7808 2.1455-2.0334 0.3659-0.07816 0.76804-0.11668 1.1725-0.11555 0.40781 0.0011 0.81109 0.04078 1.177 0.11894 1.2257 0.26055 2.1875 0.95043 2.1875 2.09l-0.0057 0.11328z" stroke-width=".11328"/>
</svg>
